<?xml version="1.0" encoding="UTF-8"?>
<!DOCTYPE svg PUBLIC "-//W3C//DTD SVG 1.1//EN" "http://www.w3.org/Graphics/SVG/1.1/DTD/svg11.dtd">
<svg xmlns="http://www.w3.org/2000/svg" version="1.1" width="300px" height="300px" style="shape-rendering:geometricPrecision; text-rendering:geometricPrecision; image-rendering:optimizeQuality; fill-rule:evenodd; clip-rule:evenodd" xmlns:xlink="http://www.w3.org/1999/xlink">
<g><path style="opacity:1" fill="#f2b603" d="M 239.5,163.5 C 238.502,128.671 238.168,93.6706 238.5,58.5C 203.671,57.5016 168.671,57.1683 133.5,57.5C 133.5,56.5 133.5,55.5 133.5,54.5C 135.684,47.4834 140.351,42.9834 147.5,41C 183.832,40.5 220.165,40.3333 256.5,40.5C 256.667,75.5016 256.5,110.502 256,145.5C 254.372,155.112 248.872,161.112 239.5,163.5 Z"/></g>
<g><path style="opacity:1" fill="#0f0d0f" d="M 132.5,57.5 C 167.663,58.4984 202.996,58.8317 238.5,58.5C 238.168,93.6706 238.502,128.671 239.5,163.5C 239.667,179.503 239.5,195.503 239,211.5C 237.334,223.5 230.834,231.667 219.5,236C 201.76,236.18 184.093,236.68 166.5,237.5C 132.671,236.502 98.6708,236.168 64.5,236.5C 64.5,202.833 64.5,169.167 64.5,135.5C 63.1667,135.5 61.8333,135.5 60.5,135.5C 61.5676,134.566 62.901,134.232 64.5,134.5C 64.3334,115.83 64.5001,97.1637 65,78.5C 68.5956,67.904 75.7623,61.0707 86.5,58C 101.83,57.5001 117.163,57.3334 132.5,57.5 Z"/></g>
<g><path style="opacity:1" fill="#29200d" d="M 133.5,54.5 C 133.5,55.5 133.5,56.5 133.5,57.5C 168.671,57.1683 203.671,57.5016 238.5,58.5C 202.996,58.8317 167.663,58.4984 132.5,57.5C 132.263,56.209 132.596,55.209 133.5,54.5 Z"/></g>
<g><path style="opacity:1" fill="#44474b" d="M 136.5,109.5 C 136.5,115.833 136.5,122.167 136.5,128.5C 129.833,128.5 123.167,128.5 116.5,128.5C 122.645,127.51 128.978,127.177 135.5,127.5C 135.177,121.31 135.51,115.31 136.5,109.5 Z"/></g>
<g><path style="opacity:1" fill="#4c4d51" d="M 160.5,109.5 C 161.49,115.31 161.823,121.31 161.5,127.5C 168.354,127.176 175.021,127.509 181.5,128.5C 174.5,128.5 167.5,128.5 160.5,128.5C 160.5,122.167 160.5,115.833 160.5,109.5 Z"/></g>
<g><path style="opacity:1" fill="#0056fc" d="M 60.5,135.5 C 61.8333,135.5 63.1667,135.5 64.5,135.5C 64.5,169.167 64.5,202.833 64.5,236.5C 98.6708,236.168 132.671,236.502 166.5,237.5C 166.325,247.873 161.325,254.539 151.5,257.5C 115.5,257.5 79.5,257.5 43.5,257.5C 43.5,222.833 43.5,188.167 43.5,153.5C 44.7046,143.295 50.3713,137.295 60.5,135.5 Z"/></g>
<g><path style="opacity:1" fill="#dfe0e0" d="M 160.5,109.5 C 160.5,115.833 160.5,122.167 160.5,128.5C 167.5,128.5 174.5,128.5 181.5,128.5C 182.497,145.325 182.83,162.325 182.5,179.5C 160.167,179.5 137.833,179.5 115.5,179.5C 115.17,162.325 115.503,145.325 116.5,128.5C 123.167,128.5 129.833,128.5 136.5,128.5C 136.5,122.167 136.5,115.833 136.5,109.5C 136.611,108.883 136.944,108.383 137.5,108C 144.833,107.333 152.167,107.333 159.5,108C 160.056,108.383 160.389,108.883 160.5,109.5 Z"/></g>
<g><path style="opacity:1" fill="#222224" d="M 143.5,131.5 C 143.5,132.5 143.5,133.5 143.5,134.5C 135.833,134.5 128.167,134.5 120.5,134.5C 120.5,148.833 120.5,163.167 120.5,177.5C 119.833,177.5 119.167,177.5 118.5,177.5C 118.5,162.167 118.5,146.833 118.5,131.5C 126.833,131.5 135.167,131.5 143.5,131.5 Z"/></g>
<g><path style="opacity:1" fill="#b6b5b7" d="M 143.5,131.5 C 135.167,131.5 126.833,131.5 118.5,131.5C 118.5,146.833 118.5,162.167 118.5,177.5C 117.504,162.009 117.17,146.342 117.5,130.5C 126.349,130.174 135.016,130.507 143.5,131.5 Z"/></g>
<g><path style="opacity:1" fill="#7b7d7e" d="M 179.5,177.5 C 179.5,162.167 179.5,146.833 179.5,131.5C 171.472,131.169 163.472,131.502 155.5,132.5C 162.655,133.167 169.655,133.833 176.5,134.5C 169.833,134.5 163.167,134.5 156.5,134.5C 154.824,133.817 154.157,132.483 154.5,130.5C 163.167,130.5 171.833,130.5 180.5,130.5C 180.83,146.342 180.496,162.009 179.5,177.5 Z"/></g>
<g><path style="opacity:1" fill="#c6c6c7" d="M 143.5,134.5 C 147.833,135.833 152.167,135.833 156.5,134.5C 163.167,134.5 169.833,134.5 176.5,134.5C 177.496,148.657 177.829,162.99 177.5,177.5C 176.504,163.677 176.171,149.677 176.5,135.5C 174.901,135.232 173.568,135.566 172.5,136.5C 168.5,136.5 164.5,136.5 160.5,136.5C 160.185,140.8 157.851,142.467 153.5,141.5C 153.884,143.665 153.217,145.332 151.5,146.5C 149.783,145.332 149.116,143.665 149.5,141.5C 148.5,141.5 147.5,141.5 146.5,141.5C 146.5,143.167 146.5,144.833 146.5,146.5C 145.5,146.5 144.5,146.5 143.5,146.5C 143.5,144.5 143.5,142.5 143.5,140.5C 141.473,140.662 139.473,140.495 137.5,140C 136.944,139.617 136.611,139.117 136.5,138.5C 132.971,136.577 128.971,135.911 124.5,136.5C 123.791,135.596 122.791,135.263 121.5,135.5C 121.829,149.677 121.496,163.677 120.5,177.5C 120.5,163.167 120.5,148.833 120.5,134.5C 128.167,134.5 135.833,134.5 143.5,134.5 Z"/></g>
<g><path style="opacity:1" fill="#4b5356" d="M 130.5,171.5 C 131.451,172.919 131.784,174.585 131.5,176.5C 143.833,176.5 156.167,176.5 168.5,176.5C 156.011,177.495 143.344,177.829 130.5,177.5C 130.5,175.5 130.5,173.5 130.5,171.5 Z"/></g>
<g><path style="opacity:1" fill="#37373a" d="M 123.5,172.5 C 125.167,172.5 126.833,172.5 128.5,172.5C 128.5,174.167 128.5,175.833 128.5,177.5C 126.833,177.5 125.167,177.5 123.5,177.5C 123.5,175.833 123.5,174.167 123.5,172.5 Z"/></g>
<g><path style="opacity:1" fill="#515053" d="M 170.5,172.5 C 174.5,171.833 176.167,173.5 175.5,177.5C 173.833,177.5 172.167,177.5 170.5,177.5C 170.5,175.833 170.5,174.167 170.5,172.5 Z"/></g>
<g><path style="opacity:1" fill="#110f11" d="M 168.5,176.5 C 156.167,176.5 143.833,176.5 131.5,176.5C 131.784,174.585 131.451,172.919 130.5,171.5C 129.282,170.839 127.949,170.172 126.5,169.5C 141.833,168.167 157.167,168.167 172.5,169.5C 171.311,170.429 169.978,170.762 168.5,170.5C 168.5,172.5 168.5,174.5 168.5,176.5 Z"/></g>
<g><path style="opacity:1" fill="#696869" d="M 124.5,136.5 C 128.971,135.911 132.971,136.577 136.5,138.5C 132.936,137.577 129.269,137.244 125.5,137.5C 125.5,146.833 125.5,156.167 125.5,165.5C 124.506,156.014 124.173,146.348 124.5,136.5 Z"/></g>
<g><path style="opacity:1" fill="#181718" d="M 172.5,136.5 C 172.5,146.167 172.5,155.833 172.5,165.5C 156.833,165.5 141.167,165.5 125.5,165.5C 125.5,156.167 125.5,146.833 125.5,137.5C 129.269,137.244 132.936,137.577 136.5,138.5C 136.611,139.117 136.944,139.617 137.5,140C 139.473,140.495 141.473,140.662 143.5,140.5C 143.5,142.5 143.5,144.5 143.5,146.5C 144.5,146.5 145.5,146.5 146.5,146.5C 146.5,144.833 146.5,143.167 146.5,141.5C 147.5,141.5 148.5,141.5 149.5,141.5C 149.116,143.665 149.783,145.332 151.5,146.5C 153.217,145.332 153.884,143.665 153.5,141.5C 157.851,142.467 160.185,140.8 160.5,136.5C 164.5,136.5 168.5,136.5 172.5,136.5 Z"/></g>
<g><path style="opacity:1" fill="#e1e1e1" d="M 131.5,155.5 C 143.518,155.168 155.518,155.501 167.5,156.5C 168.752,158.001 169.752,159.668 170.5,161.5C 156.167,162.833 141.833,162.833 127.5,161.5C 128.844,159.471 130.177,157.471 131.5,155.5 Z"/></g>
<g><path style="opacity:1" fill="#434848" d="M 132.5,158.5 C 143.5,159.833 154.5,159.833 165.5,158.5C 166.043,158.56 166.376,158.893 166.5,159.5C 154.833,160.833 143.167,160.833 131.5,159.5C 131.624,158.893 131.957,158.56 132.5,158.5 Z"/></g>
<g><path style="opacity:1" fill="#252426" d="M 165.5,158.5 C 154.5,159.833 143.5,159.833 132.5,158.5C 143.5,157.167 154.5,157.167 165.5,158.5 Z"/></g>
<g><path style="opacity:1" fill="#48484b" d="M 139.5,136.5 C 145.868,136.17 152.202,136.504 158.5,137.5C 155.333,137.833 152.167,138.167 149,138.5C 145.424,138.485 142.258,137.818 139.5,136.5 Z"/></g>
<g><path style="opacity:1" fill="#5e5f61" d="M 145.5,130.5 C 147.833,130.5 150.167,130.5 152.5,130.5C 152.5,131.833 152.5,133.167 152.5,134.5C 150.167,134.5 147.833,134.5 145.5,134.5C 145.5,133.167 145.5,131.833 145.5,130.5 Z"/></g>
<g><path style="opacity:1" fill="#18181a" d="M 179.5,177.5 C 178.833,177.5 178.167,177.5 177.5,177.5C 177.829,162.99 177.496,148.657 176.5,134.5C 169.655,133.833 162.655,133.167 155.5,132.5C 163.472,131.502 171.472,131.169 179.5,131.5C 179.5,146.833 179.5,162.167 179.5,177.5 Z"/></g>
<g><path style="opacity:1" fill="#505154" d="M 145.5,125.5 C 146.833,125.5 148.167,125.5 149.5,125.5C 149.5,126.5 149.5,127.5 149.5,128.5C 148.167,128.5 146.833,128.5 145.5,128.5C 145.5,127.5 145.5,126.5 145.5,125.5 Z"/></g>
<g><path style="opacity:1" fill="#343334" d="M 147.5,118.5 C 150.833,118.5 152.5,120.167 152.5,123.5C 150.167,123.5 147.833,123.5 145.5,123.5C 145.392,121.486 146.058,119.82 147.5,118.5 Z"/></g>
<g><path style="opacity:1" fill="#1c1b1d" d="M 141.5,112.5 C 141.5,114.167 141.5,115.833 141.5,117.5C 142.167,118.167 142.833,118.833 143.5,119.5C 143.5,122.5 143.5,125.5 143.5,128.5C 142.167,128.5 140.833,128.5 139.5,128.5C 139.171,122.794 139.505,117.128 140.5,111.5C 141.107,111.624 141.44,111.957 141.5,112.5 Z"/></g>
<g><path style="opacity:1" fill="#535354" d="M 152.5,110.5 C 152.404,115.11 151.404,115.444 149.5,111.5C 148.77,112.934 147.77,114.1 146.5,115C 147.056,115.383 147.389,115.883 147.5,116.5C 146.167,117.5 144.833,118.5 143.5,119.5C 142.833,118.833 142.167,118.167 141.5,117.5C 142.649,117.209 143.316,116.376 143.5,115C 143.316,113.624 142.649,112.791 141.5,112.5C 141.44,111.957 141.107,111.624 140.5,111.5C 139.505,117.128 139.171,122.794 139.5,128.5C 138.51,122.69 138.177,116.69 138.5,110.5C 143.167,110.5 147.833,110.5 152.5,110.5 Z"/></g>
<g><path style="opacity:1" fill="#cfcfd0" d="M 141.5,112.5 C 142.649,112.791 143.316,113.624 143.5,115C 143.316,116.376 142.649,117.209 141.5,117.5C 141.5,115.833 141.5,114.167 141.5,112.5 Z"/></g>
<g><path style="opacity:1" fill="#302f32" d="M 152.5,110.5 C 154.5,110.5 156.5,110.5 158.5,110.5C 158.5,116.5 158.5,122.5 158.5,128.5C 157.167,128.5 155.833,128.5 154.5,128.5C 154.665,125.15 154.498,121.817 154,118.5C 152.103,116.984 149.936,116.317 147.5,116.5C 147.389,115.883 147.056,115.383 146.5,115C 147.77,114.1 148.77,112.934 149.5,111.5C 151.404,115.444 152.404,115.11 152.5,110.5 Z"/></g>
<g><path style="opacity:0.659" fill="#17276a" d="M 43.5,153.5 C 43.5,188.167 43.5,222.833 43.5,257.5C 79.5,257.5 115.5,257.5 151.5,257.5C 115.337,258.498 79.0038,258.832 42.5,258.5C 42.1683,223.329 42.5016,188.329 43.5,153.5 Z"/></g>
</svg>
